<svg
  width="34"
  height="22"
  viewBox="0 0 34 22"
  fill="none"
  xmlns="http://www.w3.org/2000/svg"
>
  <g clip-path="url(#clip0)">
    <path
      d="M0.228271 2.74463C0.228271 1.22881 1.47121 0 3.00445 0H30.7662C32.2994 0 33.5424 1.22881 33.5424 2.74463V19.2124C33.5424 20.7282 32.2994 21.957 30.7662 21.957H3.00445C1.47121 21.957 0.228271 20.7282 0.228271 19.2124V2.74463Z"
      fill="#D4DEF7"
    />
    <path
      d="M24.8132 6.77289L24.1686 8.17772H25.4613L24.8132 6.77289ZM17.375 7.64344C17.4965 7.58643 17.5681 7.46242 17.5681 7.30842C17.5681 7.15751 17.4929 7.04821 17.3714 6.99685C17.2608 6.93992 17.0905 6.93334 16.9273 6.93334H15.7741V7.71609H16.9118C17.094 7.71613 17.2463 7.71372 17.375 7.64344ZM2.59819 6.77289L1.9609 8.17772H3.23933L2.59819 6.77289ZM32.2697 15.7727H30.4612V15.0168H32.2624C32.441 15.0168 32.5661 14.9958 32.6414 14.9295C32.7126 14.8704 32.7528 14.787 32.7521 14.6997C32.7521 14.597 32.7067 14.5154 32.6376 14.4666C32.5698 14.4128 32.4707 14.3883 32.3076 14.3883C31.4283 14.3615 30.3312 14.4127 30.3312 13.2973C30.3312 12.7861 30.6922 12.248 31.675 12.248H33.5405V11.5467H31.8073C31.2842 11.5467 30.9042 11.6594 30.6351 11.8346V11.5467H28.0715C27.6616 11.5467 27.1804 11.6381 26.9529 11.8346V11.5467H22.3746V11.8346C22.0104 11.5982 21.3955 11.5467 21.1119 11.5467H18.0921V11.8346C17.8039 11.5835 17.1628 11.5467 16.7722 11.5467H13.3926L12.6194 12.2995L11.895 11.5467H6.84656V16.4654H11.7998L12.5966 15.7005L13.3472 16.4654L16.4004 16.4678V15.3107H16.7007C17.1057 15.3166 17.5835 15.3018 18.0051 15.1379V16.4652H20.5235V15.1832H20.645C20.7999 15.1832 20.8153 15.189 20.8153 15.3284V16.4649H28.4657C28.9515 16.4649 29.4592 16.3532 29.7403 16.1501V16.4649H32.167C32.6719 16.4649 33.1651 16.4013 33.5404 16.2383V15.322C33.313 15.6212 32.8695 15.7729 32.2696 15.7729L32.2697 15.7727ZM16.7408 14.6113H15.5722V15.7936H13.7519L12.5987 14.6268L11.4003 15.7936H7.69066V12.2688H11.4574L12.6096 13.4242L13.8008 12.2688H16.7933C17.5365 12.2688 18.3716 12.4539 18.3716 13.43C18.3716 14.4092 17.5594 14.6113 16.7408 14.6113ZM22.3599 14.4515C22.4921 14.6235 22.5112 14.7841 22.5151 15.0948V15.7936H21.5747V15.3526C21.5747 15.1406 21.5975 14.8266 21.4234 14.6627C21.2867 14.5365 21.078 14.5063 20.7362 14.5063H19.7354V15.7936H18.7944V12.2688H20.9565C21.4308 12.2688 21.776 12.2878 22.0834 12.4351C22.379 12.5957 22.565 12.8158 22.565 13.2179C22.5649 13.7804 22.1477 14.0674 21.9012 14.1556C22.1095 14.2248 22.2799 14.3488 22.3599 14.4515ZM26.2284 12.9978H24.0354V13.6385H26.1748V14.3577H24.0354V15.059L26.2284 15.0622V15.7936H23.1027V12.2688H26.2284V12.9978ZM28.635 15.7935H26.811V15.0377H28.6277C28.8054 15.0377 28.9313 15.0165 29.0103 14.9503C29.0746 14.8959 29.1209 14.8166 29.1209 14.7206C29.1209 14.6178 29.0708 14.5363 29.0066 14.4874C28.935 14.4336 28.8361 14.4093 28.6731 14.4093C27.7973 14.3823 26.7004 14.4335 26.7004 13.3182C26.7004 12.807 27.0576 12.2688 28.0394 12.2688H29.917V13.0189H28.199C28.0287 13.0189 27.918 13.0248 27.8238 13.0828C27.7211 13.1399 27.6831 13.2245 27.6831 13.3362C27.6831 13.4692 27.7702 13.5597 27.888 13.5988C27.9868 13.6297 28.0929 13.6387 28.2524 13.6387L28.7566 13.6511C29.2649 13.6621 29.614 13.7413 29.8261 13.9345C30.0083 14.1042 30.1063 14.3185 30.1063 14.6812C30.1062 15.4395 29.5794 15.7935 28.635 15.7935ZM21.3715 13.0546C21.2583 12.9941 21.0913 12.9909 20.9247 12.9909H19.7714V13.7825H20.9093C21.0914 13.7825 21.2463 13.7767 21.3715 13.7099C21.4929 13.6439 21.5655 13.5223 21.5655 13.3716C21.5655 13.2208 21.4929 13.1117 21.3715 13.0546ZM31.8353 12.9909C31.665 12.9909 31.5517 12.9967 31.4563 13.0545C31.3575 13.1117 31.3196 13.1963 31.3196 13.3082C31.3196 13.441 31.403 13.5316 31.5243 13.5707C31.6232 13.6016 31.7292 13.6107 31.8852 13.6107L32.3929 13.6228C32.905 13.6342 33.247 13.7135 33.4555 13.9067C33.4935 13.9335 33.5163 13.9636 33.5424 13.9938V12.9909H31.8354L31.8353 12.9909ZM16.7732 12.9909H15.5521V13.8886H16.7623C17.1221 13.8886 17.3459 13.728 17.3461 13.4231C17.3459 13.1148 17.1113 12.9909 16.7732 12.9909ZM8.62343 12.9909V13.6317H10.6794V14.3509H8.62343V15.0521H10.926L11.9957 14.0181L10.9714 12.9909H8.62343ZM14.6359 15.4558V12.6299L13.1981 14.0201L14.6359 15.4558ZM8.70202 9.79658V10.4039H16.5263L16.5227 9.11908H16.6741C16.7801 9.12241 16.811 9.13119 16.811 9.28863V10.404H20.8578V10.1048C21.1842 10.2621 21.6918 10.404 22.3599 10.404H24.0623L24.4267 9.62125H25.2345L25.5908 10.404H28.8715V9.66046L29.3682 10.4039H31.9973V5.48926H29.3955V6.06969L29.0312 5.48926H26.3614V6.06969L26.0269 5.48926H22.4206C21.8169 5.48926 21.2864 5.56503 20.8577 5.77625V5.48926H18.369V5.77625C18.0962 5.55854 17.7246 5.48926 17.3114 5.48926H8.21947L7.60947 6.7587L6.98298 5.48926H4.11931V6.06969L3.80466 5.48926H1.36243L0.228314 7.82606V9.69526L1.90533 6.17129H3.29682L4.88953 9.50774V6.17129H6.41812L7.64372 8.56186L8.76968 6.17129H10.3289V9.69526H9.369L9.3655 6.93535L8.00745 9.69526H7.18517L5.82367 6.9329V9.69526H3.91874L3.5589 8.90923H1.60896L1.2454 9.69526H0.228271V10.4042H1.82849L2.18928 9.62145H2.99712L3.35696 10.4042H6.50534V9.80572L6.78634 10.4067H8.42073L8.70177 9.7967L8.70202 9.79658ZM21.0315 6.58204C21.3341 6.30079 21.8083 6.17109 22.4537 6.17109H23.3603V6.92617H22.4727C22.1311 6.92617 21.9379 6.97187 21.7521 7.13497C21.5924 7.28332 21.4829 7.56381 21.4829 7.93315C21.4829 8.31071 21.5664 8.58291 21.7403 8.76072C21.8845 8.90017 22.1466 8.94247 22.3931 8.94247H22.8138L24.1337 6.17121H25.5369L27.1225 9.50434V6.17125H28.5485L30.1947 8.62549V6.17125H31.154V9.6951H29.8269L28.0517 7.05022V9.6951H26.1444L25.78 8.90907H23.8345L23.4809 9.6951H22.3849C21.9298 9.6951 21.3534 9.60457 21.027 9.30531C20.6978 9.00613 20.5267 8.60083 20.5267 7.96006C20.5266 7.43736 20.6288 6.9596 21.0315 6.58204ZM19.1052 6.17113H20.0607V9.6951H19.1052V6.17113ZM14.7969 6.17113H16.9509C17.4294 6.17113 17.7822 6.18255 18.085 6.33992C18.3813 6.49733 18.5589 6.72714 18.5589 7.12014C18.5589 7.68205 18.1419 7.97229 17.8991 8.05949C18.1039 8.12965 18.2791 8.25358 18.3625 8.35622C18.4947 8.53151 18.5175 8.68807 18.5175 9.00277V9.69506H17.5729L17.5694 9.25066C17.5694 9.03857 17.5919 8.73362 17.4215 8.56418C17.2847 8.4403 17.0761 8.41331 16.7389 8.41331H15.7335V9.6951H14.797L14.7969 6.17113ZM11.0215 6.17113H14.1501V6.90496H11.9581V7.54016H14.0974V8.26252H11.9581V8.96628H14.1501V9.69506H11.0215V6.17113Z"
      fill="#2557D6"
    />
  </g>
  <defs>
    <clipPath id="clip0">
      <rect
        width="33.3141"
        height="21.957"
        fill="white"
        transform="translate(0.228271)"
      />
    </clipPath>
  </defs>
</svg>
