<svg
  width="35"
  height="22"
  viewBox="0 0 35 22"
  fill="none"
  xmlns="http://www.w3.org/2000/svg"
>
  <g clip-path="url(#clip0)">
    <path
      d="M0.157043 2.74463C0.157043 1.22881 1.42823 0 2.99631 0H31.389C32.9571 0 34.2283 1.22881 34.2283 2.74463V19.2124C34.2283 20.7282 32.9571 21.957 31.389 21.957H2.99631C1.42823 21.957 0.157043 20.7282 0.157043 19.2124V2.74463Z"
      fill="#FCE0CF"
    />
    <path
      d="M20.4436 10.964C20.4462 10.3741 20.2174 9.78335 19.7569 9.33817C19.2955 8.89207 18.6828 8.67107 18.0713 8.67462C18.0684 8.67462 18.0655 8.67444 18.0625 8.67444C16.7346 8.67444 15.6813 9.69238 15.6813 10.9764C15.6813 12.2477 16.7476 13.2781 18.0625 13.2781C19.3908 13.2781 20.4439 12.26 20.4439 10.9764C20.4439 10.9721 20.4436 10.9682 20.4436 10.964Z"
      fill="#F26E21"
    />
    <path
      d="M15.239 11.9507C14.8831 12.2951 14.5546 12.4297 14.2008 12.437C13.3388 12.4295 12.705 11.8124 12.705 10.9327C12.705 10.4898 12.8785 10.1268 13.1533 9.81677C13.411 9.58028 13.7429 9.42748 14.1247 9.42748C14.5368 9.42748 14.8575 9.56026 15.2236 9.91441V8.89629C14.8575 8.7193 14.5367 8.63072 14.1247 8.63072C13.5426 8.67094 12.9937 8.89831 12.5727 9.25533C12.4513 9.36087 12.3351 9.47737 12.2365 9.61071C11.9289 9.99601 11.7431 10.4678 11.7431 10.9771C11.7431 12.2607 12.7967 13.2345 14.1246 13.2345C14.1311 13.2345 14.1375 13.234 14.1438 13.2339C14.1527 13.234 14.1615 13.2345 14.1704 13.2345C14.5367 13.2345 14.8575 13.1462 15.2696 12.9691L15.239 11.9507C15.2235 11.9657 15.2543 11.9796 15.239 11.9937V11.9507Z"
      fill="#2B2B2B"
    />
    <path
      d="M23.4499 9.26513L22.4129 11.7299L21.2221 8.80801H20.2606L22.1381 13.2791H22.6418L24.611 8.80801H23.6494L23.4499 9.26513Z"
      fill="#2B2B2B"
    />
    <path
      d="M24.978 10.7559V13.1465H27.451H27.4966V12.438H26.7182H25.8939V11.6413V11.243H27.451V10.4902H25.8939V9.56069H27.4966V8.80801H24.978V10.7559Z"
      fill="#2B2B2B"
    />
    <path
      d="M4.27879 8.8089H2.99631V13.1474H4.27873C4.96553 13.1474 5.46919 12.9702 5.88134 12.6603C6.385 12.2619 6.7057 11.6423 6.7057 10.9784C6.70576 9.69424 5.74391 8.8089 4.27879 8.8089ZM5.33196 12.0849C5.05717 12.3062 4.69081 12.4388 4.14124 12.4388H3.86645V9.56152H4.09539C4.64496 9.56152 5.01132 9.65004 5.28617 9.91554C5.60668 10.181 5.78995 10.5796 5.78995 10.9782C5.83574 11.3766 5.65259 11.8191 5.33196 12.0849Z"
      fill="#2B2B2B"
    />
    <path
      d="M7.98817 8.80782H7.11809V13.1462H7.98817V8.80782Z"
      fill="#2B2B2B"
    />
    <path
      d="M10.1864 10.4907C9.63691 10.3137 9.49936 10.1808 9.49936 9.95955C9.49936 9.69393 9.77415 9.47262 10.1405 9.47262C10.4153 9.47262 10.6442 9.56121 10.8732 9.82683L11.3313 9.25138C10.9648 8.94137 10.5071 8.76451 10.0033 8.76451C9.22458 8.76451 8.58343 9.29576 8.58343 10.0038C8.58343 10.6237 8.85847 10.8893 9.68264 11.1992C10.049 11.3318 10.1864 11.3762 10.2782 11.4647C10.461 11.5531 10.5528 11.7304 10.5528 11.9072C10.5528 12.2614 10.2782 12.5271 9.86579 12.5271C9.45326 12.5271 9.08722 12.3058 8.904 11.9516L8.35443 12.4829C8.76677 13.0583 9.27049 13.3239 9.91164 13.3239C10.8274 13.3239 11.4683 12.7484 11.4683 11.9072C11.4684 11.1548 11.1939 10.845 10.1864 10.4907Z"
      fill="#2B2B2B"
    />
    <path
      d="M29.97 11.3313C30.6567 11.1987 31.0231 10.7558 31.0231 10.0919C31.0231 9.29525 30.4277 8.80801 29.4204 8.80801H28.0923V13.1465H28.9624V11.4198H29.0999L30.336 13.1465H31.3894L29.97 11.3313ZM29.237 10.8H28.9624V9.47211H29.237C29.7866 9.47211 30.1073 9.69335 30.1073 10.1363C30.1073 10.5788 29.7866 10.8 29.237 10.8Z"
      fill="#2B2B2B"
    />
  </g>
  <defs>
    <clipPath id="clip0">
      <rect
        width="34.0712"
        height="21.957"
        fill="white"
        transform="translate(0.157043)"
      />
    </clipPath>
  </defs>
</svg>
