<svg
  width="35"
  height="22"
  viewBox="0 0 35 22"
  fill="none"
  xmlns="http://www.w3.org/2000/svg"
>
  <g clip-path="url(#clip0)">
    <path
      d="M0.842957 2.74463C0.842957 1.22881 2.08589 0 3.61913 0H31.3809C32.9141 0 34.157 1.22881 34.157 2.74463V19.2124C34.157 20.7282 32.9141 21.957 31.3809 21.957H3.61913C2.08589 21.957 0.842957 20.7282 0.842957 19.2124V2.74463Z"
      fill="#CCEFFF"
    />
    <path
      d="M21.1436 17.4543H13.8568V4.50755H21.1436V17.4543Z"
      fill="#6C6BBD"
    />
    <path
      d="M14.3235 10.9785C14.3235 8.35219 15.5673 6.01274 17.5042 4.5051C16.0878 3.40265 14.3002 2.74463 12.3575 2.74463C7.75825 2.74463 4.03003 6.431 4.03003 10.9785C4.03003 15.526 7.75825 19.2124 12.3575 19.2124C14.3002 19.2124 16.0878 18.5544 17.5042 17.4519C15.5673 15.9443 14.3235 13.6048 14.3235 10.9785Z"
      fill="#EB001B"
    />
    <path
      d="M30.9708 10.9785C30.9708 15.526 27.2426 19.2124 22.6434 19.2124C20.7006 19.2124 18.913 18.5544 17.4961 17.4519C19.4335 15.9443 20.6773 13.6048 20.6773 10.9785C20.6773 8.35219 19.4335 6.01274 17.4961 4.5051C18.913 3.40265 20.7006 2.74463 22.6434 2.74463C27.2426 2.74463 30.9708 6.431 30.9708 10.9785Z"
      fill="#0099DF"
    />
  </g>
  <defs>
    <clipPath id="clip0">
      <rect
        width="33.3141"
        height="21.957"
        fill="white"
        transform="translate(0.842957)"
      />
    </clipPath>
  </defs>
</svg>
