<svg
  width="35"
  height="22"
  viewBox="0 0 35 22"
  fill="none"
  xmlns="http://www.w3.org/2000/svg"
>
  <g clip-path="url(#clip0)">
    <path
      d="M0.457634 2.74463C0.457634 1.22881 1.72882 0 3.2969 0H31.6896C33.2577 0 34.5289 1.22881 34.5289 2.74463V19.2124C34.5289 20.7282 33.2577 21.957 31.6896 21.957H3.2969C1.72882 21.957 0.457634 20.7282 0.457634 19.2124V2.74463Z"
      fill="#CCDEFF"
    />
    <path
      d="M8.10295 7.90276C7.74708 7.66626 7.28268 7.54773 6.70978 7.54773H4.49181C4.31618 7.54773 4.21915 7.63264 4.20072 7.80229L3.29973 13.2695C3.29037 13.3232 3.30427 13.3723 3.3413 13.4169C3.37812 13.4617 3.42443 13.4839 3.4799 13.4839H4.53342C4.7182 13.4839 4.81976 13.3992 4.83841 13.2293L5.08789 11.7554C5.097 11.684 5.1295 11.6259 5.18496 11.5812C5.24038 11.5365 5.3097 11.5073 5.39288 11.494C5.47605 11.4807 5.55448 11.474 5.62855 11.474C5.7024 11.474 5.79015 11.4785 5.89197 11.4874C5.99354 11.4963 6.05828 11.5007 6.08603 11.5007C6.88075 11.5007 7.50454 11.2842 7.95745 10.8508C8.41014 10.4176 8.63675 9.81689 8.63675 9.04842C8.63675 8.52136 8.45866 8.1395 8.10295 7.90264V7.90276ZM6.95939 9.54439C6.91304 9.85711 6.79304 10.0625 6.59898 10.1608C6.40488 10.2592 6.12764 10.3082 5.76727 10.3082L5.30979 10.3215L5.5455 8.8877C5.56389 8.78952 5.62393 8.74037 5.72566 8.74037H5.98913C6.35861 8.74037 6.62678 8.79186 6.79313 8.89442C6.95939 8.99722 7.01486 9.21394 6.95939 9.54439Z"
      fill="#003087"
    />
    <path
      d="M31.5091 7.54773H30.4834C30.3814 7.54773 30.3214 7.59688 30.3031 7.69522L29.4021 13.2697L29.3882 13.2965C29.3882 13.3414 29.4066 13.3836 29.4437 13.4239C29.4805 13.464 29.5269 13.4841 29.5823 13.4841H30.4973C30.6726 13.4841 30.7697 13.3994 30.7885 13.2295L31.6894 7.74884V7.73553C31.6894 7.6104 31.6291 7.54789 31.5091 7.54789V7.54773Z"
      fill="#009CDE"
    />
    <path
      d="M19.1162 9.70654C19.1162 9.66198 19.0976 9.61946 19.0609 9.57937C19.0238 9.53919 18.9822 9.51895 18.9361 9.51895H17.8687C17.7668 9.51895 17.6837 9.56384 17.6191 9.65293L16.1497 11.7434L15.5398 9.73341C15.4934 9.59059 15.3918 9.51895 15.2348 9.51895H14.195C14.1487 9.51895 14.1071 9.5391 14.0704 9.57937C14.0333 9.61946 14.0149 9.66206 14.0149 9.70654C14.0149 9.72452 14.105 9.98797 14.2852 10.4972C14.4654 11.0065 14.6594 11.556 14.8674 12.1456C15.0754 12.7351 15.1839 13.048 15.1932 13.0834C14.4353 14.0841 14.0565 14.6201 14.0565 14.6914C14.0565 14.8077 14.1165 14.8657 14.2367 14.8657H15.3041C15.4057 14.8657 15.4889 14.8211 15.5537 14.7317L19.0886 9.8003C19.107 9.7826 19.1162 9.75147 19.1162 9.7065V9.70654Z"
      fill="#003087"
    />
    <path
      d="M29.0563 9.51691H28.0028C27.8732 9.51691 27.795 9.66436 27.7672 9.95922C27.5267 9.60198 27.088 9.42311 26.4502 9.42311C25.7848 9.42311 25.2187 9.66436 24.7521 10.1468C24.2854 10.6292 24.0521 11.1966 24.0521 11.8487C24.0521 12.3759 24.2115 12.7957 24.5303 13.1083C24.8491 13.4212 25.2765 13.5773 25.8127 13.5773C26.0806 13.5773 26.3532 13.5236 26.6305 13.4165C26.9077 13.3093 27.1247 13.1664 27.2821 12.9877C27.2821 12.9967 27.2726 13.0367 27.2544 13.1082C27.2357 13.1798 27.2266 13.2335 27.2266 13.269C27.2266 13.4121 27.2865 13.4833 27.4068 13.4833H28.3634C28.5388 13.4833 28.6405 13.3986 28.6682 13.2288L29.2366 9.73129C29.2457 9.67763 29.2319 9.6286 29.195 9.58387C29.1578 9.53931 29.1117 9.51691 29.0563 9.51691ZM27.2473 12.1569C27.0117 12.3802 26.7275 12.4918 26.3948 12.4918C26.1267 12.4918 25.9097 12.4205 25.7433 12.2775C25.5768 12.1348 25.4937 11.9383 25.4937 11.6879C25.4937 11.3576 25.6092 11.0781 25.8403 10.8504C26.071 10.6226 26.3578 10.5087 26.6997 10.5087C26.9583 10.5087 27.1732 10.5824 27.3443 10.7297C27.5151 10.8772 27.6009 11.0804 27.6009 11.3395C27.6008 11.6611 27.483 11.9337 27.2473 12.1569Z"
      fill="#009CDE"
    />
    <path
      d="M13.3085 9.51691H12.2549C12.1254 9.51691 12.047 9.66436 12.0192 9.95922C11.7697 9.60198 11.3307 9.42311 10.7023 9.42311C10.0369 9.42311 9.47078 9.66436 9.00414 10.1468C8.53738 10.6292 8.30413 11.1966 8.30413 11.8487C8.30413 12.3759 8.46357 12.7957 8.78242 13.1083C9.10126 13.4212 9.52857 13.5773 10.0646 13.5773C10.3233 13.5773 10.5914 13.5236 10.8686 13.4165C11.1459 13.3093 11.3677 13.1664 11.534 12.9877C11.497 13.0948 11.4786 13.1886 11.4786 13.269C11.4786 13.4121 11.5386 13.4833 11.6588 13.4833H12.6153C12.7907 13.4833 12.8925 13.3986 12.9202 13.2288L13.4886 9.73129C13.4977 9.67763 13.4839 9.6286 13.447 9.58387C13.41 9.53931 13.3639 9.51691 13.3085 9.51691ZM11.4995 12.1635C11.2638 12.3826 10.9748 12.4918 10.6331 12.4918C10.3649 12.4918 10.1501 12.4205 9.98847 12.2775C9.82665 12.1348 9.74585 11.9383 9.74585 11.6879C9.74585 11.3576 9.86131 11.0781 10.0924 10.8504C10.3233 10.6226 10.6098 10.5086 10.9519 10.5086C11.2105 10.5086 11.4254 10.5824 11.5965 10.7297C11.7674 10.8772 11.853 11.0804 11.853 11.3395C11.8529 11.6701 11.7351 11.9449 11.4995 12.1635Z"
      fill="#003087"
    />
    <path
      d="M23.8505 7.90276C23.4947 7.66626 23.0304 7.54773 22.4574 7.54773H20.2533C20.0684 7.54773 19.9667 7.63264 19.9483 7.80229L19.0472 13.2695C19.0379 13.3232 19.0518 13.3723 19.0889 13.4169C19.1255 13.4617 19.1719 13.4839 19.2274 13.4839H20.3641C20.4749 13.4839 20.5488 13.4259 20.5859 13.3097L20.8354 11.7554C20.8446 11.684 20.877 11.6259 20.9325 11.5812C20.988 11.5365 21.0572 11.5073 21.1405 11.494C21.2236 11.4807 21.302 11.474 21.3761 11.474C21.45 11.474 21.5377 11.4785 21.6394 11.4874C21.741 11.4963 21.806 11.5007 21.8335 11.5007C22.6284 11.5007 23.252 11.2842 23.7049 10.8508C24.1578 10.4176 24.3842 9.81689 24.3842 9.04842C24.3842 8.52136 24.2062 8.13946 23.8505 7.90264V7.90276ZM22.4297 10.1071C22.2264 10.2411 21.9213 10.3081 21.5148 10.3081L21.0712 10.3215L21.3068 8.88762C21.3251 8.78948 21.3852 8.74025 21.487 8.74025H21.7364C21.9398 8.74025 22.1015 8.74922 22.2218 8.76703C22.3417 8.78497 22.4574 8.84072 22.5683 8.93447C22.6793 9.02831 22.7346 9.16462 22.7346 9.3432C22.7346 9.71855 22.6329 9.97303 22.4297 10.1071Z"
      fill="#009CDE"
    />
  </g>
  <defs>
    <clipPath id="clip0">
      <rect
        width="34.0712"
        height="21.957"
        fill="white"
        transform="translate(0.457634)"
      />
    </clipPath>
  </defs>
</svg>
