<svg
  width="34"
  height="22"
  viewBox="0 0 34 22"
  fill="none"
  xmlns="http://www.w3.org/2000/svg"
>
  <g clip-path="url(#clip0)">
    <path
      d="M0.52887 2.74463C0.52887 1.22882 1.77181 7.62939e-06 3.30504 7.62939e-06H31.0668C32.6 7.62939e-06 33.843 1.22882 33.843 2.74463V19.2124C33.843 20.7282 32.6 21.957 31.0668 21.957H3.30504C1.7718 21.957 0.52887 20.7282 0.52887 19.2124V2.74463Z"
      fill="#D8E3F3"
    />
    <path
      d="M29.2 6.88272H27.4547C26.9271 6.88272 26.5212 7.04323 26.2777 7.56486L22.9495 15.0684H25.3036C25.3036 15.0684 25.7094 14.0653 25.7906 13.8245C26.0341 13.8245 28.3476 13.8245 28.6723 13.8245C28.7535 14.1054 28.9564 15.0283 28.9564 15.0283H31.067L29.2 6.88272ZM26.44 12.1392C26.643 11.6577 27.3329 9.85205 27.3329 9.85205C27.3329 9.89218 27.5359 9.37054 27.6171 9.08966L27.7794 9.81193C27.7794 9.81193 28.2259 11.7781 28.307 12.1794H26.44V12.1392Z"
      fill="#3362AB"
    />
    <path
      d="M23.1116 12.382C23.1116 14.0673 21.5693 15.1908 19.1746 15.1908C18.1599 15.1908 17.1858 14.9902 16.6582 14.7494L16.9829 12.9036L17.267 13.024C17.9976 13.345 18.4846 13.4654 19.3775 13.4654C20.0269 13.4654 20.7169 13.2246 20.7169 12.6629C20.7169 12.3017 20.4328 12.061 19.5399 11.6597C18.6876 11.2584 17.5511 10.6164 17.5511 9.45277C17.5511 7.84773 19.134 6.76432 21.3663 6.76432C22.2187 6.76432 22.9492 6.92482 23.3957 7.12546L23.071 8.891L22.9086 8.7305C22.5028 8.57 21.9751 8.40949 21.204 8.40949C20.3516 8.44962 19.9458 8.81075 19.9458 9.13176C19.9458 9.4929 20.4328 9.77378 21.204 10.1349C22.5028 10.7368 23.1116 11.419 23.1116 12.382Z"
      fill="#3362AB"
    />
    <path
      d="M3.30496 6.96431L3.34555 6.80381H6.83606C7.32311 6.80381 7.68839 6.96431 7.81016 7.48595L8.58132 11.0973C7.81016 9.17125 6.02431 7.60633 3.30496 6.96431Z"
      fill="#F9B50B"
    />
    <path
      d="M13.4924 6.88436L9.96134 15.03H7.56669L5.53732 8.20852C6.99847 9.13142 8.21609 10.576 8.66255 11.5791L8.90607 12.4218L11.0978 6.84423H13.4924V6.88436Z"
      fill="#3362AB"
    />
    <path
      d="M14.426 6.84423H16.6583L15.2377 15.03H13.0054L14.426 6.84423Z"
      fill="#3362AB"
    />
  </g>
  <defs>
    <clipPath id="clip0">
      <rect
        width="33.3141"
        height="21.957"
        fill="white"
        transform="translate(0.52887)"
      />
    </clipPath>
  </defs>
</svg>
