<svg
  width="21"
  height="22"
  viewBox="0 0 21 22"
  fill="none"
  xmlns="http://www.w3.org/2000/svg"
>
  <path
    d="M10.7787 2.58543C6.17211 2.58543 2.42432 6.36024 2.42432 11.0001V14.4863C2.42432 15.3479 3.17371 16.0488 4.0952 16.0488H4.93065C5.15222 16.0488 5.36472 15.9602 5.52139 15.8024C5.67807 15.6446 5.76609 15.4306 5.76609 15.2074V10.8797C5.76609 10.6566 5.67807 10.4425 5.52139 10.2847C5.36472 10.1269 5.15222 10.0383 4.93065 10.0383H4.17206C4.63657 6.78181 7.41859 4.26836 10.7787 4.26836C14.1389 4.26836 16.9209 6.78181 17.3854 10.0383H16.6268C16.4053 10.0383 16.1928 10.1269 16.0361 10.2847C15.8794 10.4425 15.7914 10.6566 15.7914 10.8797V16.0488C15.7914 16.977 15.042 17.7318 14.1205 17.7318H12.4496V16.8903H9.10786V19.4147H14.1205C15.9635 19.4147 17.4623 17.9051 17.4623 16.0488C18.3838 16.0488 19.1332 15.3479 19.1332 14.4863V11.0001C19.1332 6.36024 15.3854 2.58543 10.7787 2.58543Z"
    fill="white"
  />
</svg>
