<svg
  width="18"
  height="18"
  viewBox="0 0 18 18"
  fill="none"
  xmlns="http://www.w3.org/2000/svg"
>
  <g clip-path="url(#clip0)">
    <path
      d="M17.1 0.358433C17.0489 0.230367 16.9508 0.127057 16.826 0.0699928C16.7013 0.0129291 16.5595 0.00650614 16.4302 0.0520602C16.3008 0.0976142 16.1939 0.191638 16.1316 0.314571C16.0694 0.437504 16.0566 0.579881 16.0959 0.712084C16.9134 3.07862 15.2907 4.84598 14.0534 5.79259L13.5536 5.07111C13.3855 4.82914 13.0097 4.62794 12.7176 4.62439L9.91212 4.6368C9.56941 4.64723 9.23587 4.75074 8.94676 4.93639L0.680039 10.7747C0.487754 10.911 0.35692 11.1185 0.316181 11.3517C0.275442 11.5849 0.328119 11.8249 0.462679 12.0191L4.2194 17.4329C4.501 17.8362 4.95068 17.7875 5.35196 17.5056L13.6187 11.6664C13.8563 11.4971 14.1308 11.1319 14.2276 10.8527L15.1059 8.06517C15.2027 7.78686 15.1437 7.3623 14.9756 7.12033L14.6712 6.68071C16.3326 5.39817 18.0574 3.1318 17.1 0.358433ZM13.2535 8.65282C13.1012 8.76019 12.9294 8.83628 12.7479 8.87676C12.5664 8.91723 12.3787 8.92128 12.1957 8.88869C12.0126 8.85609 11.8377 8.78749 11.681 8.68679C11.5243 8.58609 11.3888 8.45528 11.2823 8.30183C11.0666 7.9913 10.9821 7.60728 11.0473 7.23405C11.1124 6.86082 11.322 6.52888 11.6299 6.3111C11.8713 6.14076 12.1595 6.05064 12.4542 6.05335C12.7489 6.05605 13.0354 6.15143 13.2737 6.32617C13.0344 6.47153 12.8698 6.55662 12.839 6.56991C12.7299 6.6223 12.6417 6.71045 12.5889 6.81993C12.5361 6.9294 12.5217 7.0537 12.5482 7.17247C12.5747 7.29123 12.6404 7.39741 12.7347 7.47361C12.8289 7.5498 12.9461 7.5915 13.0669 7.59187C13.1426 7.59187 13.22 7.57414 13.2931 7.53957C13.4638 7.45803 13.6468 7.36142 13.8378 7.24708C13.8817 7.51304 13.8502 7.78608 13.7468 8.03478C13.6434 8.28347 13.4724 8.49771 13.2535 8.65282Z"
      fill="white"
    />
  </g>
  <defs>
    <clipPath id="clip0">
      <rect
        width="17.6"
        height="17.7268"
        fill="white"
        transform="translate(0.0385742 -0.000350952)"
      />
    </clipPath>
  </defs>
</svg>
