<svg
  width="21"
  height="22"
  viewBox="0 0 21 22"
  fill="none"
  xmlns="http://www.w3.org/2000/svg"
>
  <g clip-path="url(#clip0)">
    <path
      d="M12.7474 19.4877L10.8385 21.4105L8.92957 19.4877C5.17772 18.6149 2.37695 15.2261 2.37695 11.1828C2.37695 6.47804 6.16772 2.6597 10.8385 2.6597C15.5093 2.6597 19.3 6.47804 19.3 11.1828C19.3 15.2261 16.4993 18.6149 12.7474 19.4877ZM5.78103 14.0943C7.02318 15.9608 8.88811 17.1489 10.9739 17.1489C13.0588 17.1489 14.9246 15.9617 16.1659 14.0943C14.7577 12.7686 12.9014 12.0324 10.9739 12.0351C9.04609 12.0321 7.18946 12.7684 5.78103 14.0943ZM10.8385 10.3305C11.5117 10.3305 12.1574 10.0611 12.6335 9.58156C13.1095 9.10205 13.377 8.45168 13.377 7.77354C13.377 7.09541 13.1095 6.44504 12.6335 5.96553C12.1574 5.48601 11.5117 5.21662 10.8385 5.21662C10.1653 5.21662 9.51958 5.48601 9.04353 5.96553C8.56747 6.44504 8.30003 7.09541 8.30003 7.77354C8.30003 8.45168 8.56747 9.10205 9.04353 9.58156C9.51958 10.0611 10.1653 10.3305 10.8385 10.3305Z"
      fill="white"
    />
  </g>
  <defs>
    <clipPath id="clip0">
      <rect
        width="20.3077"
        height="20.4554"
        fill="white"
        transform="translate(0.68457 0.955078)"
      />
    </clipPath>
  </defs>
</svg>
