<svg
  width="37"
  height="13"
  viewBox="0 0 37 13"
  fill="none"
  xmlns="http://www.w3.org/2000/svg"
>
          <g clipPath="url(#clip0)">
            <path
      d="M13.1107 4.86825L10.1491 7.47387H2.81423C2.13006 7.47297 1.4692 7.71691 0.956253 8.15971L4.65567 4.90408L4.71243 4.85489L9.34731 0.772894C10.0947 0.11539 11.1439 -0.102219 12.0997 0.202039C13.0556 0.506297 13.7729 1.2862 13.9814 2.24796C14.1899 3.20972 13.858 4.20723 13.1107 4.86473V4.86825Z"
      fill="#F15B41"
    />
            <path
      d="M2.81426 5.57602C4.36854 5.57602 5.62853 4.34369 5.62853 2.82353C5.62853 1.30337 4.36854 0.0710449 2.81426 0.0710449C1.25999 0.0710449 0 1.30337 0 2.82353C0 4.34369 1.25999 5.57602 2.81426 5.57602Z"
      fill="#F99D1D"
    />
            <path
      d="M2.81426 7.47388C2.13009 7.47298 1.46923 7.71692 0.956284 8.15972L0.932574 8.1808C-0.222914 9.19721 -0.317164 10.9373 0.722061 12.0674C1.76129 13.1976 3.54045 13.2898 4.69594 12.2733L10.1499 7.47458L2.81426 7.47388Z"
      fill="#272560"
    />
            <path
      d="M10.1453 7.47596L4.69079 12.2747C4.17431 12.729 3.50374 12.9794 2.80916 12.9775L11.2244 12.9774C12.8476 12.952 13.9936 11.7577 13.9936 10.2253C13.9936 8.69291 12.7609 7.49716 11.2244 7.47314L10.1453 7.47596Z"
      fill="#00B6BD"
    />
            <path
      d="M18.0735 10.6764C17.8392 10.6848 17.6126 10.5944 17.4515 10.4283C17.2938 10.2606 17.2098 10.0394 17.2173 9.81204C17.2151 9.58304 17.2731 9.35731 17.3859 9.15642C17.485 8.97679 17.606 8.80951 17.7463 8.65821L21.2283 4.82004H18.1932C17.8991 4.82004 17.6886 4.72166 17.5733 4.52631C17.461 4.33007 17.405 4.10797 17.4111 3.88334C17.403 3.66685 17.467 3.45361 17.5935 3.2755C17.7189 3.10695 17.9229 3.01131 18.1362 3.02112H23.4986C23.7253 3.01094 23.9465 3.09169 24.1105 3.24458C24.2626 3.39285 24.3397 3.60366 24.3397 3.87069C24.3462 4.07863 24.3017 4.28506 24.21 4.47291C24.122 4.63657 24.0117 4.78786 23.8821 4.92264L20.256 8.87675H23.6918C23.8985 8.87173 24.0952 8.96308 24.2215 9.12269C24.3561 9.30114 24.424 9.5191 24.414 9.74037C24.4238 9.9709 24.3671 10.1995 24.2504 10.4002C24.1329 10.5836 23.9246 10.6771 23.632 10.6771L18.0735 10.6764Z"
      fill="#272560"
    />
            <path
      d="M26.497 10.7775C25.5427 10.7775 25.3437 10.2997 25.3437 9.89913V4.05264C25.3437 3.74697 25.4382 3.49961 25.6256 3.31761C25.813 3.13561 26.1113 3.04286 26.5135 3.04286C26.8523 3.04286 27.1204 3.11805 27.3114 3.26702C27.5024 3.41599 27.6084 3.65632 27.6084 3.96551V9.86821C27.6084 10.1893 27.5046 10.4255 27.2999 10.5709C27.0952 10.7164 26.8321 10.7775 26.497 10.7775ZM26.497 2.41534C26.125 2.41534 25.8202 2.30924 25.5895 2.09983C25.3589 1.89042 25.2385 1.60161 25.2385 1.24675C25.2297 0.932148 25.3565 0.628329 25.5881 0.409128C25.8166 0.190587 26.1229 0.0788574 26.497 0.0788574C26.8054 0.0795133 27.1053 0.178192 27.351 0.359939C27.6192 0.552479 27.7554 0.85183 27.7554 1.24956C27.7554 1.60442 27.6372 1.89183 27.4044 2.10334C27.1716 2.31486 26.8667 2.41745 26.497 2.41745V2.41534Z"
      fill="#272560"
    />
            <path
      d="M30.0964 13.0178C29.2041 13.0178 29.0153 12.5323 29.0153 12.1247V3.8545C29.0076 3.59546 29.1098 3.3448 29.2978 3.16163C29.4845 2.97962 29.7836 2.88687 30.1858 2.88687C30.4359 2.88439 30.6831 2.94029 30.9065 3.04989C31.1437 3.16865 31.2669 3.40125 31.2669 3.73504C31.315 3.68116 31.3666 3.62588 31.4219 3.5692C31.5734 3.41928 31.7427 3.28764 31.9264 3.17709C32.3728 2.90543 32.89 2.76491 33.4162 2.77232C33.9204 2.76277 34.42 2.86817 34.875 3.08011C35.2915 3.28054 35.654 3.57316 35.9338 3.93461C36.2253 4.3212 36.4382 4.75868 36.5608 5.22338C36.7012 5.74847 36.77 6.28928 36.7655 6.83188C36.7707 7.38459 36.6915 7.93498 36.5306 8.46498C36.3884 8.93577 36.155 9.37563 35.843 9.76078C35.5424 10.1237 35.1614 10.4156 34.7287 10.6146C34.2578 10.8251 33.7446 10.93 33.2266 10.9217C32.8798 10.9314 32.5338 10.8838 32.2032 10.7811C31.9657 10.7026 31.7401 10.5937 31.5322 10.4572C31.4194 10.3826 31.3155 10.2961 31.2222 10.1993V12.0825C31.2222 12.41 31.1307 12.6517 30.9498 12.8007C30.7689 12.9497 30.4907 13.0178 30.0964 13.0178ZM32.8396 4.64575C32.594 4.63996 32.351 4.69586 32.134 4.80808C31.9297 4.92099 31.7547 5.07795 31.6222 5.26695C31.4734 5.48078 31.3648 5.71873 31.3015 5.96966C31.2269 6.26126 31.1903 6.56087 31.1927 6.86139C31.1927 7.54583 31.3368 8.09465 31.6251 8.49309C31.9134 8.89152 32.3048 9.07774 32.8425 9.07774C33.3802 9.07774 33.7715 8.87817 34.0433 8.46709C34.315 8.056 34.4599 7.50859 34.4599 6.86139C34.4608 6.56166 34.423 6.26301 34.3474 5.97247C34.2841 5.72262 34.1778 5.48502 34.0332 5.26976C33.9045 5.0805 33.7316 4.92371 33.5286 4.81229C33.3175 4.69997 33.0801 4.64261 32.8396 4.64575Z"
      fill="#272560"
    />
          </g>
          <defs>
            <clipPath id="clip0">
              <rect width="37" height="13" fill="white" />
            </clipPath>
          </defs>
        </svg>
